HIERARCHY
ROOT Root
{
  OFFSET 0.0 0.0 0.0
  CHANNELS 6 Xposition Yposition Zposition Zrotation Yrotation Xrotation
  JOINT Hips
  {
    OFFSET 0.0 100.0 0.0
    CHANNELS 6 Xposition Yposition Zposition Zrotation Yrotation Xrotation
    JOINT Spine1
    {
      OFFSET 5.003913 -0.037094 -0.013727
      CHANNELS 3 Zrotation Yrotation Xrotation
      JOINT Spine2
      {
        OFFSET 7.125363 -1e-06 0.0
        CHANNELS 3 Zrotation Yrotation Xrotation
        JOINT Chest
        {
          OFFSET 7.594027 1e-06 0.0
          CHANNELS 3 Zrotation Yrotation Xrotation
          JOINT Neck1
          {
            OFFSET 26.313086 -0.460272 -0.181672
            CHANNELS 3 Zrotation Yrotation Xrotation
            JOINT Neck2
            {
              OFFSET 8.045911 0.0 0.0
              CHANNELS 3 Zrotation Yrotation Xrotation
              JOINT Head
              {
                OFFSET 6.432774 0.0 0.0
                CHANNELS 3 Zrotation Yrotation Xrotation
                JOINT HeadEnd
                {
                  OFFSET 16.169773 0.06451 0.00362
                  CHANNELS 3 Zrotation Yrotation Xrotation
                }
                JOINT Jaw
                {
                  OFFSET 0.108741 3.12938 0.002639
                  CHANNELS 3 Zrotation Yrotation Xrotation
                }
                JOINT LeftEye
                {
                  OFFSET 4.45173 8.166359 3.206392
                  CHANNELS 3 Zrotation Yrotation Xrotation
                }
                JOINT RightEye
                {
                  OFFSET 4.436895 8.135758 -3.222429
                  CHANNELS 3 Zrotation Yrotation Xrotation
                }
              }
            }
          }
          JOINT LeftShoulder
          {
            OFFSET 23.218927 5.195579 1.621656
            CHANNELS 3 Zrotation Yrotation Xrotation
            JOINT LeftArm
            {
              OFFSET 15.902118 2e-06 -2e-06
              CHANNELS 3 Zrotation Yrotation Xrotation
              JOINT LeftForeArm
              {
                OFFSET 28.739307 0.0 -1e-06
                CHANNELS 3 Zrotation Yrotation Xrotation
                JOINT LeftHand
                {
                  OFFSET 27.093981 -4e-06 0.0
                  CHANNELS 3 Zrotation Yrotation Xrotation
                  JOINT LeftHandThumb1
                  {
                    OFFSET 2.276781 3.380274 0.83384
                    CHANNELS 3 Zrotation Yrotation Xrotation
                    JOINT LeftHandThumb2
                    {
                      OFFSET 4.705309 -1e-06 -1e-06
                      CHANNELS 3 Zrotation Yrotation Xrotation
                      JOINT LeftHandThumb3
                      {
                        OFFSET 2.798515 0.0 3e-06
                        CHANNELS 3 Zrotation Yrotation Xrotation
                        JOINT LeftHandThumbEnd
                        {
                          OFFSET 3.180793 4e-06 -4e-06
                          CHANNELS 3 Zrotation Yrotation Xrotation
                        }
                      }
                    }
                  }
                  JOINT LeftHandIndex1
                  {
                    OFFSET 3.247786 2.352677 0.137192
                    CHANNELS 3 Zrotation Yrotation Xrotation
                    JOINT LeftHandIndex2
                    {
                      OFFSET 6.367095 1e-06 0.0
                      CHANNELS 3 Zrotation Yrotation Xrotation
                      JOINT LeftHandIndex3
                      {
                        OFFSET 3.662364 0.0 0.0
                        CHANNELS 3 Zrotation Yrotation Xrotation
                        JOINT LeftHandIndex4
                        {
                          OFFSET 2.329242 4e-06 -4e-06
                          CHANNELS 3 Zrotation Yrotation Xrotation
                          JOINT LeftHandIndexEnd
                          {
                            OFFSET 2.767823 1e-06 0.0
                            CHANNELS 3 Zrotation Yrotation Xrotation
                          }
                        }
                      }
                    }
                  }
                  JOINT LeftHandMiddle1
                  {
                    OFFSET 3.163612 0.945023 -0.406112
                    CHANNELS 3 Zrotation Yrotation Xrotation
                    JOINT LeftHandMiddle2
                    {
                      OFFSET 6.276789 3e-06 0.0
                      CHANNELS 3 Zrotation Yrotation Xrotation
                      JOINT LeftHandMiddle3
                      {
                        OFFSET 4.35652 -1e-06 4e-06
                        CHANNELS 3 Zrotation Yrotation Xrotation
                        JOINT LeftHandMiddle4
                        {
                          OFFSET 2.996877 0.0 8e-06
                          CHANNELS 3 Zrotation Yrotation Xrotation
                          JOINT LeftHandMiddleEnd
                          {
                            OFFSET 2.323256 3e-06 -4e-06
                            CHANNELS 3 Zrotation Yrotation Xrotation
                          }
                        }
                      }
                    }
                  }
                  JOINT LeftHandRing1
                  {
                    OFFSET 2.882606 -0.309162 0.107445
                    CHANNELS 3 Zrotation Yrotation Xrotation
                    JOINT LeftHandRing2
                    {
                      OFFSET 6.033198 0.0 4e-06
                      CHANNELS 3 Zrotation Yrotation Xrotation
                      JOINT LeftHandRing3
                      {
                        OFFSET 4.350578 3e-06 0.0
                        CHANNELS 3 Zrotation Yrotation Xrotation
                        JOINT LeftHandRing4
                        {
                          OFFSET 2.651321 2e-06 -7e-06
                          CHANNELS 3 Zrotation Yrotation Xrotation
                          JOINT LeftHandRingEnd
                          {
                            OFFSET 1.937663 1e-06 -4e-06
                            CHANNELS 3 Zrotation Yrotation Xrotation
                          }
                        }
                      }
                    }
                  }
                  JOINT LeftHandPinky1
                  {
                    OFFSET 2.865315 -1.525436 0.575687
                    CHANNELS 3 Zrotation Yrotation Xrotation
                    JOINT LeftHandPinky2
                    {
                      OFFSET 5.54936 1e-06 -8e-06
                      CHANNELS 3 Zrotation Yrotation Xrotation
                      JOINT LeftHandPinky3
                      {
                        OFFSET 3.070974 0.0 -4e-06
                        CHANNELS 3 Zrotation Yrotation Xrotation
                        JOINT LeftHandPinky4
                        {
                          OFFSET 1.549672 1e-06 0.0
                          CHANNELS 3 Zrotation Yrotation Xrotation
                          JOINT LeftHandPinkyEnd
                          {
                            OFFSET 1.952123 0.0 0.0
                            CHANNELS 3 Zrotation Yrotation Xrotation
                          }
                        }
                      }
                    }
                  }
                }
              }
            }
          }
          JOINT RightShoulder
          {
            OFFSET 23.161716 5.296122 -1.380114
            CHANNELS 3 Zrotation Yrotation Xrotation
            JOINT RightArm
            {
              OFFSET -16.027195 -2e-06 1.1e-05
              CHANNELS 3 Zrotation Yrotation Xrotation
              JOINT RightForeArm
              {
                OFFSET -28.736639 4e-06 2e-06
                CHANNELS 3 Zrotation Yrotation Xrotation
                JOINT RightHand
                {
                  OFFSET -27.133619 6e-06 0.0
                  CHANNELS 3 Zrotation Yrotation Xrotation
                  JOINT RightHandThumb1
                  {
                    OFFSET -2.274328 -3.351035 -0.83067
                    CHANNELS 3 Zrotation Yrotation Xrotation
                    JOINT RightHandThumb2
                    {
                      OFFSET -4.703594 -3e-06 2e-06
                      CHANNELS 3 Zrotation Yrotation Xrotation
                      JOINT RightHandThumb3
                      {
                        OFFSET -2.794935 -4e-06 -3e-06
                        CHANNELS 3 Zrotation Yrotation Xrotation
                        JOINT RightHandThumbEnd
                        {
                          OFFSET -3.183852 4e-06 1e-06
                          CHANNELS 3 Zrotation Yrotation Xrotation
                        }
                      }
                    }
                  }
                  JOINT RightHandIndex1
                  {
                    OFFSET -3.253496 -2.33755 -0.127667
                    CHANNELS 3 Zrotation Yrotation Xrotation
                    JOINT RightHandIndex2
                    {
                      OFFSET -6.344434 0.0 0.0
                      CHANNELS 3 Zrotation Yrotation Xrotation
                      JOINT RightHandIndex3
                      {
                        OFFSET -3.654871 0.0 -8e-06
                        CHANNELS 3 Zrotation Yrotation Xrotation
                        JOINT RightHandIndex4
                        {
                          OFFSET -2.327586 -1e-06 0.0
                          CHANNELS 3 Zrotation Yrotation Xrotation
                          JOINT RightHandIndexEnd
                          {
                            OFFSET -2.770001 3e-06 8e-06
                            CHANNELS 3 Zrotation Yrotation Xrotation
                          }
                        }
                      }
                    }
                  }
                  JOINT RightHandMiddle1
                  {
                    OFFSET -3.168223 -0.944764 0.411762
                    CHANNELS 3 Zrotation Yrotation Xrotation
                    JOINT RightHandMiddle2
                    {
                      OFFSET -6.266691 -1e-06 -4e-06
                      CHANNELS 3 Zrotation Yrotation Xrotation
                      JOINT RightHandMiddle3
                      {
                        OFFSET -4.348901 0.0 0.0
                        CHANNELS 3 Zrotation Yrotation Xrotation
                        JOINT RightHandMiddle4
                        {
                          OFFSET -3.00024 2e-06 -4e-06
                          CHANNELS 3 Zrotation Yrotation Xrotation
                          JOINT RightHandMiddleEnd
                          {
                            OFFSET -2.321477 -4e-06 -4e-06
                            CHANNELS 3 Zrotation Yrotation Xrotation
                          }
                        }
                      }
                    }
                  }
                  JOINT RightHandRing1
                  {
                    OFFSET -2.885654 0.293261 -0.119232
                    CHANNELS 3 Zrotation Yrotation Xrotation
                    JOINT RightHandRing2
                    {
                      OFFSET -6.032835 -1e-06 -4e-06
                      CHANNELS 3 Zrotation Yrotation Xrotation
                      JOINT RightHandRing3
                      {
                        OFFSET -4.33881 0.0 -4e-06
                        CHANNELS 3 Zrotation Yrotation Xrotation
                        JOINT RightHandRing4
                        {
                          OFFSET -2.654903 -4e-06 -4e-06
                          CHANNELS 3 Zrotation Yrotation Xrotation
                          JOINT RightHandRingEnd
                          {
                            OFFSET -1.935122 0.0 4e-06
                            CHANNELS 3 Zrotation Yrotation Xrotation
                          }
                        }
                      }
                    }
                  }
                  JOINT RightHandPinky1
                  {
                    OFFSET -2.866241 1.503904 -0.60527
                    CHANNELS 3 Zrotation Yrotation Xrotation
                    JOINT RightHandPinky2
                    {
                      OFFSET -5.553177 -2e-06 0.0
                      CHANNELS 3 Zrotation Yrotation Xrotation
                      JOINT RightHandPinky3
                      {
                        OFFSET -3.062664 -1e-06 -4e-06
                        CHANNELS 3 Zrotation Yrotation Xrotation
                        JOINT RightHandPinky4
                        {
                          OFFSET -1.546529 2e-06 4e-06
                          CHANNELS 3 Zrotation Yrotation Xrotation
                          JOINT RightHandPinkyEnd
                          {
                            OFFSET -1.952341 0.0 -4e-06
                            CHANNELS 3 Zrotation Yrotation Xrotation
                          }
                        }
                      }
                    }
                  }
                }
              }
            }
          }
        }
      }
    }
    JOINT LeftLeg
    {
      OFFSET -8.443107 2.567604 10.043214
      CHANNELS 3 Zrotation Yrotation Xrotation
      JOINT LeftShin
      {
        OFFSET 43.229198 1e-06 -1e-06
        CHANNELS 3 Zrotation Yrotation Xrotation
        JOINT LeftFoot
        {
          OFFSET 42.298611 1e-06 1e-06
          CHANNELS 3 Zrotation Yrotation Xrotation
          JOINT LeftToeBase
          {
            OFFSET 14.165858 1e-06 0.0
            CHANNELS 3 Zrotation Yrotation Xrotation
            JOINT LeftToeEnd
            {
              OFFSET 6.7141 -0.234461 0.0
              CHANNELS 3 Zrotation Yrotation Xrotation
            }
          }
        }
      }
    }
    JOINT RightLeg
    {
      OFFSET -8.303923 2.592729 -10.047278
      CHANNELS 3 Zrotation Yrotation Xrotation
      JOINT RightShin
      {
        OFFSET -43.369682 0.0 1e-06
        CHANNELS 3 Zrotation Yrotation Xrotation
        JOINT RightFoot
        {
          OFFSET -42.260784 4e-06 2e-06
          CHANNELS 3 Zrotation Yrotation Xrotation
          JOINT RightToeBase
          {
            OFFSET -14.222245 -2e-06 -1e-06
            CHANNELS 3 Zrotation Yrotation Xrotation
            JOINT RightToeEnd
            {
              OFFSET -6.660062 0.232574 -2e-06
              CHANNELS 3 Zrotation Yrotation Xrotation
            }
          }
        }
      }
    }
  }
}
MOTION
Frames: 4
Frame Time: 0.03333333333333333
0.0 0.0 0.0 0.0 -0.0 0.0 6.700496 11.346233 105.273582 -121.883141 -87.031723 -57.741287 -4.271112 -0.440106 -0.329151 -11.843326 -0.28094 0.036995 14.261615 0.177164 -1.71619 -2.186727 7.490675 2.993313 -2.4698 0.696601 6.094005 -35.769897 4.411683 5.746196 8e-06 1e-06 0.0 -0.241255 0.006754 -0.03956 -0.368661 0.05647 -0.018988 -0.369814 -0.021506 -0.068924 -40.539104 -71.354179 48.823307 16.091558 -12.219268 -70.924339 143.450394 0.283504 -0.511713 -30.088728 24.469948 14.085522 17.636625 -26.322733 52.411201 -19.466665 -14.395602 29.410395 -1e-06 -8.774824 -1e-06 16.173592 -17.933428 6.030791 -0.609776 -1.795654 -3.889328 -4.807088 -11.046813 -2.93785 5e-06 -20.976021 -2e-06 -5.019972 -25.033566 -4.031881 6e-06 0.0 0.0 -10.634535 -5.686972 -3.565587 10.573275 -17.922951 -3.113904 1e-06 -13.821211 0.0 -0.501775 -31.181511 -4.027018 -11.022216 -60.533058 7.536693 -13.982716 -7.1502 -2.875041 13.772732 -8.401493 -3.218244 0.347734 -34.211559 0.771653 -0.963028 -17.733374 2.621018 -1e-06 1e-06 -1e-06 -17.346422 -20.095222 -4.20178 21.757566 -1.638375 3.866426 0.0 -6.338826 0.0 -1.697591 -22.591751 -6.194008 0.0 -5e-06 -2e-06 132.924942 -65.520988 56.137482 45.279568 -22.076359 -82.03054 144.848541 0.007521 -0.623155 -17.482166 12.044101 25.710033 22.182117 -20.375898 49.933331 -16.701822 -16.743534 28.476542 -2e-06 -12.690604 1e-06 15.013232 -17.915747 2.907588 -0.105919 -1.513857 -4.275883 -5.039044 -5.612874 -2.953557 2e-06 -11.020528 -3e-06 -6.1113 -15.895338 -3.840474 -1e-06 0.0 0.0 -10.283374 -5.680291 -4.341839 11.028297 -11.302407 -2.372635 -1.384268 -14.238586 -6.320124 -0.625439 -26.924198 -3.827606 -4.779565 -49.824055 -3.816489 -13.708528 -7.36348 -3.720939 18.141155 -14.05274 -3.242677 4e-06 -18.787271 -4e-06 -0.429712 -8.456047 2.555504 -0.0 1e-06 -1e-06 -15.923543 -20.094492 -5.473585 30.419218 -7.190824 1.735925 -1e-06 -8.162928 -1e-06 -1.861902 -22.861473 -6.167945 -0.0 -3e-06 -1e-06 178.807098 -17.797295 -88.043739 10.45186 -9.290084 49.371052 -93.57502 38.776279 -29.374792 -12.502584 1.170298 2.650857 -0.999999 0.0 -1e-06 -2.68974 -17.093058 -88.046059 9.397303 -8.527645 47.189796 -73.921051 30.283922 -20.213444 -13.8842 0.787099 1.81451 -1.000002 0.0 -0.0 
0.0 0.0 0.0 0.0 -0.0 0.0 6.696072 11.299544 105.060898 -121.954193 -87.033241 -57.8396 -4.274819 -0.499051 -0.286484 -11.742527 -0.21732 0.142879 14.200599 -0.233248 -1.780836 -2.841485 6.804884 3.068636 -2.419435 0.537358 5.40026 -35.739456 4.59489 5.141367 4e-06 0.0 -1e-06 -0.20227 -0.028641 -0.019642 -0.310407 0.049022 0.007639 -0.29647 -0.085761 -0.060003 -39.760841 -71.848656 47.898968 15.133394 -9.757896 -72.111435 142.26416 0.173389 -0.536872 -30.840483 23.272125 13.915098 17.636625 -26.322739 52.411209 -19.466656 -14.3956 29.410389 -1e-06 -8.774822 -2e-06 16.218777 -18.035547 5.998981 -0.609776 -1.795653 -3.889328 -4.807091 -11.046809 -2.93785 1e-06 -20.976015 2e-06 -5.019975 -25.03356 -4.031879 6e-06 0.0 -0.0 -10.634537 -5.686971 -3.565587 10.573276 -17.922947 -3.1139 1e-06 -13.821209 2e-06 -0.501781 -31.181505 -4.027014 -11.39643 -60.600521 7.808459 -13.982716 -7.150198 -2.875041 13.772733 -8.401491 -3.218242 0.34773 -34.211555 0.771659 -0.963032 -17.73337 2.621019 0.0 0.0 -2e-06 -17.346422 -20.095217 -4.201779 21.757563 -1.638374 3.866428 1e-06 -6.338824 2e-06 -1.697591 -22.591743 -6.194004 -0.0 -4e-06 -3e-06 133.692932 -65.822845 55.53764 44.596722 -20.099106 -82.694839 143.947891 0.092448 -0.484543 -18.703814 11.987791 24.73192 22.182114 -20.375889 49.9333 -16.701809 -16.743525 28.476522 -4e-06 -12.690598 -1e-06 15.023442 -17.859726 2.877539 -0.10592 -1.513855 -4.27588 -5.039039 -5.61287 -2.953554 4e-06 -11.02052 -1e-06 -6.111295 -15.895328 -3.840468 -1e-06 -1e-06 -1e-06 -10.283367 -5.680285 -4.341838 11.028291 -11.302401 -2.372632 -1.384266 -14.238579 -6.32012 -0.625439 -26.924179 -3.827597 -4.820986 -50.005661 -3.719637 -13.708522 -7.363472 -3.720938 18.141146 -14.052737 -3.242672 6e-06 -18.787262 -1e-06 -0.429711 -8.456042 2.555504 -1e-06 0.0 0.0 -15.92353 -20.094475 -5.473585 30.419205 -7.190827 1.735925 1e-06 -8.162926 1e-06 -1.861901 -22.861464 -6.167937 -0.0 -3e-06 -1e-06 178.690475 -18.107887 -87.937881 9.706388 -9.075877 49.775909 -93.591621 38.601578 -29.52627 -13.41161 1.204929 2.592649 -0.999999 -0.0 0.0 -3.760261 -17.774311 -87.172783 11.027297 -10.109665 46.482998 -73.161926 29.940964 -19.321619 -13.37696 0.728768 1.806353 -1.000002 1e-06 -0.0 
0.0 0.0 0.0 0.0 -0.0 0.0 6.702256 11.317986 104.914391 -121.273727 -86.960236 -58.623631 -4.2671 -0.551394 -0.301287 -11.740362 -0.290439 0.170257 14.137608 -0.497351 -1.768194 -3.396787 6.155978 3.068653 -2.41692 0.553383 4.816727 -35.763279 4.586592 4.550319 6e-06 0.0 0.0 -0.19755 -0.014878 -0.0287 -0.314058 0.067498 -0.007456 -0.300006 -0.076817 -0.062376 -38.943451 -72.305634 47.140762 14.19555 -7.60278 -72.950348 141.240097 0.332474 -0.500764 -31.139215 22.348028 13.859465 17.636625 -26.322718 52.411171 -19.466656 -14.395591 29.410378 -0.0 -8.774819 -3e-06 16.274706 -18.041355 5.990157 -0.609774 -1.795654 -3.889327 -4.807086 -11.046807 -2.93785 6e-06 -20.976011 -1e-06 -5.019968 -25.033548 -4.031879 6e-06 0.0 -1e-06 -10.634529 -5.686968 -3.565587 10.573269 -17.922947 -3.113899 2e-06 -13.821205 0.0 -0.501776 -31.181498 -4.027014 -11.482561 -60.714203 7.863853 -13.982709 -7.150196 -2.875042 13.772723 -8.401489 -3.21824 0.347735 -34.211544 0.771654 -0.963027 -17.733368 2.621018 1e-06 1e-06 -0.0 -17.346411 -20.095215 -4.201783 21.757551 -1.638373 3.866429 0.0 -6.338824 -0.0 -1.697587 -22.59174 -6.194009 -0.0 -5e-06 -2e-06 134.581421 -66.169777 54.820026 43.618336 -18.420324 -83.124504 143.058594 0.198413 -0.521212 -19.491476 12.031291 24.025307 22.182117 -20.375898 49.933315 -16.701811 -16.743526 28.476528 -4e-06 -12.690598 -1e-06 15.121561 -17.857912 2.884886 -0.10592 -1.513856 -4.275881 -5.039041 -5.612871 -2.953556 3e-06 -11.020525 -1e-06 -6.111294 -15.895334 -3.840471 -0.0 -0.0 0.0 -10.283369 -5.680287 -4.341839 11.028292 -11.302406 -2.372632 -1.384265 -14.238583 -6.32012 -0.625439 -26.924192 -3.827598 -4.81717 -50.159317 -3.640766 -13.708519 -7.363475 -3.72094 18.141146 -14.05274 -3.242672 6e-06 -18.78727 -1e-06 -0.429711 -8.456047 2.555503 -1e-06 0.0 -1e-06 -15.923532 -20.094482 -5.473584 30.419207 -7.190828 1.735925 0.0 -8.162928 0.0 -1.8619 -22.861469 -6.167939 -1e-06 -2e-06 -2e-06 177.80542 -18.584055 -87.956032 10.614696 -10.472763 50.112568 -93.600288 38.107758 -28.117247 -13.48537 1.219824 2.571311 -0.999999 0.0 0.0 -4.570562 -18.289104 -86.810829 12.137806 -11.186508 46.279053 -73.030037 29.712454 -19.05872 -13.188631 0.715069 1.812525 -1.000002 -0.0 -0.0 
0.0 0.0 0.0 0.0 -0.0 0.0 6.699741 11.292553 104.761864 -121.124214 -86.897141 -58.880745 -4.254812 -0.61838 -0.306391 -11.728981 -0.332183 0.177009 14.09279 -0.799501 -1.771401 -3.996407 5.61423 3.042259 -2.414174 0.593438 4.326338 -35.732143 4.529031 3.991028 7e-06 -0.0 -1e-06 -0.200071 0.006061 -0.041591 -0.312624 0.092214 -0.024145 -0.297293 -0.060016 -0.070827 -38.189381 -72.724457 46.452309 13.337636 -5.629384 -73.667015 140.324402 0.558067 -0.454051 -31.343424 21.505278 13.81445 17.636629 -26.322729 52.411201 -19.46666 -14.395596 29.410389 0.0 -8.774822 -2e-06 16.330585 -18.001535 5.941306 -0.609777 -1.795654 -3.889328 -4.807088 -11.046811 -2.937851 3e-06 -20.976019 -0.0 -5.01997 -25.033556 -4.031881 6e-06 1e-06 -1e-06 -10.634536 -5.686972 -3.565587 10.573271 -17.922947 -3.113901 3e-06 -13.821209 1e-06 -0.501775 -31.181501 -4.027018 -11.50993 -60.796463 7.869984 -13.982712 -7.150198 -2.875042 13.772727 -8.40149 -3.218241 0.347734 -34.211555 0.771653 -0.963028 -17.73337 2.621019 0.0 1e-06 -1e-06 -17.346422 -20.095217 -4.201783 21.757557 -1.638373 3.866429 1e-06 -6.338825 0.0 -1.69759 -22.591743 -6.194006 1e-06 -5e-06 -3e-06 135.226425 -66.592087 54.432903 42.538036 -16.836092 -83.347214 142.156799 0.312114 -0.603931 -19.976965 12.177382 23.529329 22.182121 -20.375898 49.933342 -16.701822 -16.743534 28.476545 -2e-06 -12.690608 -1e-06 15.256719 -17.838028 2.868738 -0.105919 -1.513856 -4.275883 -5.039045 -5.612873 -2.953558 3e-06 -11.020528 -3e-06 -6.111301 -15.895339 -3.840473 0.0 -0.0 0.0 -10.283373 -5.68029 -4.34184 11.028299 -11.302408 -2.372635 -1.384268 -14.238587 -6.320123 -0.625438 -26.924198 -3.827605 -4.816087 -50.302425 -3.574936 -13.708529 -7.363479 -3.720941 18.141159 -14.052743 -3.242677 6e-06 -18.787273 -3e-06 -0.42971 -8.456047 2.555504 1e-06 0.0 -1e-06 -15.923545 -20.094492 -5.473588 30.419224 -7.190828 1.735928 1e-06 -8.16293 -0.0 -1.861902 -22.861473 -6.167944 -1e-06 -2e-06 -2e-06 177.080658 -19.017509 -88.052589 11.519301 -11.710629 50.368938 -93.651894 37.719875 -26.946358 -13.546159 1.235493 2.560839 -0.999999 0.0 -0.0 -5.327185 -18.792128 -86.455307 13.206779 -12.217858 46.064335 -72.752846 29.331333 -18.717585 -12.988279 0.704185 1.828662 -1.000002 -1e-06 1e-06 
